# xmcd CD database file
#
# Track frame offsets:
#	150
#	18073
#	36825
#	50335
#	67461
#	82862
#	98602
#	116149
#	132765
#	149516
#	174162
#
# Disc length: 2593 seconds
#
# Revision: 0
# Processed by: cddbd v1.5.2PL0 Copyright (c) Steve Scherf et al.
# Submitted via: ACXtractor (MTCDDB.DLL V2003.12.21)
#
DISCID=8d0a1f0b
DTITLE=Tom McIvor - The Sound of Horses
DYEAR=2007
DGENRE=Country
TTITLE0=When we Threw the cork Away
TTITLE1=The Sound of Horses
TTITLE2=Push the Bush
TTITLE3=The Wings of his Dreams
TTITLE4=It's not what he ment to Leave his Son
TTITLE5=Old Mates and Shute Gates
TTITLE6=21 Guns
TTITLE7=Heir to the Throne
TTITLE8=The Wrong Yard
TTITLE9=Big Clumper Buck Jumper
TTITLE10=Ballad of Bill the Bastard
EXTD=ID3G:   2 YEAR: 2007
EXTT0=
EXTT1=
EXTT2=
EXTT3=
EXTT4=
EXTT5=
EXTT6=
EXTT7=
EXTT8=
EXTT9=
EXTT10=
PLAYORDER=
